<svg width="48" height="48" fill="none" xmlns="http://www.w3.org/2000/svg" id="svg-64947597_816"><rect width="48" height="48" rx="24" fill="#5512EB"/><path fill-rule="evenodd" clip-rule="evenodd" d="m23.919 27.64 8.584 3.97a4.396 4.396 0 0 1 2.22 2.265c1.026 2.399-.376 4.852-2.577 5.735-2.201.882-4.547.314-5.614-2.18l-3.736-8.76c-.29-.679.438-1.346 1.123-1.03Zm.514-2.568 8.861-3.35c2.945-1.114 6.162.993 6.119 4.053l-.002.12c-.064 2.981-3.192 4.984-6.072 3.93l-8.897-3.257a.793.793 0 0 1-.009-1.497Zm-.496-1.161 8.711-3.701c2.895-1.23 3.63-4.922 1.362-7.055l-.09-.084c-2.222-2.063-5.896-1.336-7.162 1.38l-3.909 8.396c-.311.67.393 1.36 1.088 1.064Zm-2.242-1.463 3.167-8.683a4.203 4.203 0 0 0-.086-3.123c-1.028-2.398-3.811-3.172-6.012-2.288-2.2.884-3.444 2.892-2.375 5.386l3.76 8.75c.292.678 1.294.651 1.546-.041Z" fill="#FFC233"/></svg>