<svg width="48" height="48" fill="none" xmlns="http://www.w3.org/2000/svg" id="svg1775489732_1308"><g clip-path="url(#svg1775489732_1308_a)"><path d="M10.28 30.236c0 2.76-2.23 4.99-4.989 4.99a4.984 4.984 0 0 1-4.989-4.99 4.984 4.984 0 0 1 4.99-4.989h4.988v4.99Zm2.495 0a4.984 4.984 0 0 1 4.989-4.989 4.984 4.984 0 0 1 4.989 4.99v12.472a4.984 4.984 0 0 1-4.99 4.989 4.984 4.984 0 0 1-4.988-4.99V30.237Z" fill="#E01E5A"/><path d="M17.764 10.205a4.984 4.984 0 0 1-4.99-4.99 4.984 4.984 0 0 1 4.99-4.988 4.984 4.984 0 0 1 4.989 4.989v4.989h-4.99Zm0 2.532a4.984 4.984 0 0 1 4.989 4.989 4.984 4.984 0 0 1-4.99 4.989H5.254a4.984 4.984 0 0 1-4.988-4.989c0-2.76 2.23-4.989 4.989-4.989h12.51Z" fill="#36C5F0"/><path d="M37.758 17.726c0-2.76 2.23-4.989 4.988-4.989a4.984 4.984 0 0 1 4.99 4.989 4.984 4.984 0 0 1-4.99 4.989h-4.989v-4.989Zm-2.495 0a4.984 4.984 0 0 1-4.989 4.989 4.984 4.984 0 0 1-4.989-4.989V5.216c0-2.76 2.23-4.99 4.989-4.99 2.76 0 4.989 2.23 4.989 4.99v12.51Z" fill="#2EB67D"/><path d="M30.274 37.72c2.76 0 4.989 2.23 4.989 4.989a4.984 4.984 0 0 1-4.989 4.989 4.984 4.984 0 0 1-4.989-4.99V37.72h4.989Zm0-2.495a4.984 4.984 0 0 1-4.989-4.989 4.984 4.984 0 0 1 4.989-4.989h12.51c2.76 0 4.99 2.23 4.99 4.99a4.984 4.984 0 0 1-4.99 4.988h-12.51Z" fill="#ECB22E"/></g><defs><clipPath id="svg1775489732_1308_a"><path fill="#fff" d="M0 0h48v48H0z"/></clipPath></defs></svg>