<svg width="48" height="48" fill="none" xmlns="http://www.w3.org/2000/svg" id="svg-252865753_982"><g clip-path="url(#svg-252865753_982_a)"><path d="M21.434 4.507 3.538 11.912c-.995.412-.985 1.826.017 2.222l17.97 7.127a6.668 6.668 0 0 0 4.916 0l17.97-7.127c1.002-.396 1.013-1.81.017-2.222L26.533 4.507a6.668 6.668 0 0 0-5.1 0" fill="#FCB400"/><path d="M25.578 25.152v17.803a1.2 1.2 0 0 0 1.64 1.114l20.025-7.772A1.198 1.198 0 0 0 48 35.182V17.38c0-.847-.854-1.427-1.64-1.115l-20.026 7.773a1.2 1.2 0 0 0-.756 1.114Z" fill="#18BFFF"/><path d="m20.901 26.07-5.942 2.87-.604.292-12.545 6.01c-.795.384-1.81-.195-1.81-1.079V17.454c0-.32.164-.595.384-.803.09-.09.192-.166.304-.228.299-.18.727-.228 1.09-.084l19.024 7.538c.967.383 1.043 1.738.1 2.194Z" fill="#F82B60"/><path d="m20.901 26.07-5.942 2.87L.384 16.65c.09-.089.192-.165.304-.227.299-.18.727-.228 1.09-.084l19.024 7.538c.967.383 1.043 1.738.1 2.194Z" fill="#000" fill-opacity=".25"/></g><defs><clipPath id="svg-252865753_982_a"><path fill="#fff" d="M0 0h48v48H0z"/></clipPath></defs></svg>