<svg width="48" height="48" fill="none" xmlns="http://www.w3.org/2000/svg" id="svg-1339029516_661"><path d="M23.6 24c0-4.42 3.494-7.999 7.8-7.999 4.31 0 7.8 3.576 7.8 7.999 0 4.42-3.49 7.999-7.8 7.999-4.302 0-7.8-3.576-7.8-7.999Z" fill="#1ABCFE"/><path d="M8 40.001C8 35.581 11.495 32 15.8 32h7.8v8c0 4.416-3.493 7.999-7.8 7.999-4.306 0-7.8-3.583-7.8-7.999Z" fill="#0ACF83"/><path d="M23.6 0v16.001h7.8c4.31 0 7.8-3.583 7.8-8.002C39.2 3.583 35.71 0 31.4 0h-7.8Z" fill="#FF7262"/><path d="M8 7.999C8 12.419 11.495 16 15.8 16h7.8V0h-7.8C11.495 0 8 3.583 8 7.999Z" fill="#F24E1E"/><path d="M8 24c0 4.42 3.494 7.999 7.8 7.999h7.8V16h-7.8c-4.305.001-7.8 3.577-7.8 8Z" fill="#A259FF"/></svg>